<?xml version="1.0"?>
<svg xmlns="http://www.w3.org/2000/svg" xmlns:xlink="http://www.w3.org/1999/xlink" xmlns:svgjs="http://svgjs.com/svgjs" version="1.1" width="512" height="512" x="0" y="0" viewBox="0 0 511.997 511.997" style="enable-background:new 0 0 512 512" xml:space="preserve" class=""><g><g xmlns="http://www.w3.org/2000/svg"><path d="m101.765 397.609v42.551c0 27.358 22.257 49.615 49.615 49.615h26.736v-12.324z" fill="#ffb306" data-original="#000000" style=""/><path d="m178.174 332.508-.027-196.583c-.002-12.623 4.912-24.492 13.838-33.419 8.926-8.928 20.794-13.844 33.418-13.844h.998c12.886 0 25 5.017 34.111 14.125 9.112 9.111 14.13 21.227 14.126 34.114-.004 13.895-.006 30.957-.009 48.813 22.863-9.908 51.021 1.349 61.348 23.066 10.763-6.177 25.374-7.78 37.439-3.908v-155.256c0-27.358-22.257-49.616-49.615-49.616h-172.421c-27.358 0-49.615 22.258-49.615 49.616v227.034c13.023 1.588 25.177 7.281 34.823 16.427z" fill="#ffb306" data-original="#000000" style=""/><path d="m377.512 303.939v-52.954c-1.004-24.18-35.45-24.163-36.444 0v52.956h-30v-73.605c-.996-24.006-35.028-24.236-36.441-.312l-.003 73.917h-30l.003-74.109c.002-31.938.005-67.676.012-92.938.001-4.87-1.895-9.448-5.338-12.891-3.444-3.444-8.025-5.341-12.899-5.341h-.998c-4.609 0-8.943 1.795-12.203 5.055-3.259 3.26-5.054 7.594-5.053 12.203l.033 238.69-15.944 12.464-76.289-72.228c-11.476-11.294-31.237-11.48-42.942-.429l-4.962 4.521 140.074 146.478v46.581h204.271l31.567-79.959-.002-157.507c-.001-10.045-8.174-18.218-18.22-18.218h-.996c-9.496 0-17.222 7.726-17.223 17.222l-.003 30.407z" fill="#ffb306" data-original="#000000" style=""/></g></g></svg>
