<?xml version="1.0"?>
<svg xmlns="http://www.w3.org/2000/svg" xmlns:xlink="http://www.w3.org/1999/xlink" xmlns:svgjs="http://svgjs.com/svgjs" version="1.1" width="512" height="512" x="0" y="0" viewBox="0 0 607.698 607.698" style="enable-background:new 0 0 512 512" xml:space="preserve" class=""><g><g xmlns="http://www.w3.org/2000/svg"><g id="Page-1_26_"><g id="_x30_27---Computing" transform="translate(-1)"><circle id="Oval_21_" cx="532.717" cy="75.981" r="21.702" fill="#ffb306" data-original="#000000" style="" class=""/><circle id="Oval_20_" cx="76.981" cy="75.981" r="21.702" fill="#ffb306" data-original="#000000" style="" class=""/><circle id="Oval_19_" cx="76.981" cy="358.103" r="21.702" fill="#ffb306" data-original="#000000" style="" class=""/><path id="Shape_217_" d="m1.025 486.339c-.413 6.495 4.377 12.157 10.851 12.826h585.947c6.474-.669 11.264-6.331 10.851-12.826v-30.578h-607.649z" fill="#ffb306" data-original="#000000" style="" class=""/><path id="Shape_216_" d="m467.612 585.971h-325.526c-5.993 0-10.851 4.858-10.851 10.851s4.858 10.851 10.851 10.851h325.526c5.993 0 10.851-4.858 10.851-10.851s-4.858-10.851-10.851-10.851z" fill="#ffb306" data-original="#000000" style="" class=""/><path id="Shape_215_" d="m224.748 520.866-21.702 43.404h203.606l-21.702-43.404z" fill="#ffb306" data-original="#000000" style="" class=""/><circle id="Oval_18_" cx="532.717" cy="358.103" r="21.702" fill="#ffb306" data-original="#000000" style="" class=""/><path id="Shape_214_" d="m414.931 193.344c-2.895-13.247-8.151-25.866-15.517-37.251-2.422-3.741-2.31-8.582.282-12.207l12.826-17.915c-2.476-2.981-5.102-5.835-7.867-8.55-2.897-2.886-5.784-5.577-8.681-8.051l-17.915 12.815c-3.623 2.595-8.464 2.711-12.207.293-11.387-7.363-24.004-12.619-37.251-15.517-4.345-.945-7.673-4.446-8.399-8.833l-3.527-21.582c-7.833-.705-15.713-.705-23.546 0l-3.527 21.582c-.725 4.387-4.054 7.887-8.399 8.833-13.247 2.898-25.864 8.154-37.251 15.517-3.743 2.418-8.584 2.302-12.207-.293l-17.915-12.815c-2.843 2.376-5.783 5.1-8.681 7.965-2.807 2.75-5.466 5.648-7.965 8.681l12.826 17.904c2.592 3.625 2.704 8.466.282 12.207-7.366 11.385-12.622 24.004-15.517 37.251-.949 4.341-4.449 7.664-8.833 8.388l-21.572 3.537c-.391 4.047-.586 7.932-.586 11.741s.195 7.596.575 11.773l21.572 3.537c4.384.724 7.883 4.047 8.833 8.388 2.895 13.248 8.151 25.866 15.517 37.251 2.422 3.741 2.31 8.582-.282 12.207l-12.837 17.915c2.387 2.832 5.122 5.773 7.986 8.681 2.865 2.908 5.686 5.425 8.681 7.943l17.893-12.804c3.623-2.595 8.464-2.711 12.207-.293 11.387 7.363 24.004 12.619 37.251 15.517 4.345.945 7.673 4.446 8.399 8.833l3.527 21.582c7.833.7 15.713.7 23.546 0l3.527-21.582c.725-4.387 4.054-7.887 8.399-8.833 13.247-2.898 25.864-8.154 37.251-15.517 3.743-2.418 8.584-2.302 12.207.293l17.904 12.804c2.778-2.376 5.762-5.056 8.681-7.954 2.919-2.897 5.48-5.686 7.965-8.681l-12.826-17.904c-2.592-3.625-2.704-8.466-.282-12.207 7.366-11.385 12.622-24.004 15.517-37.251.949-4.341 4.449-7.664 8.833-8.388l21.572-3.537c.315-4.069.51-7.954.51-11.773 0-3.82-.195-7.596-.575-11.773l-21.572-3.537c-4.383-.726-7.883-4.05-8.832-8.39zm-110.082 110.505c-47.942 0-86.807-38.865-86.807-86.807s38.865-86.807 86.807-86.807 86.807 38.865 86.807 86.807c-.054 47.92-38.887 86.753-86.807 86.807z" fill="#ffb306" data-original="#000000" style="" class=""/><path id="Shape_213_" d="m597.822.025h-585.946c-6.474.668-11.264 6.33-10.851 12.826v421.209h607.648v-421.209c.413-6.496-4.377-12.158-10.851-12.826zm-163.49 181.448 15.549 2.55c8.926 1.431 15.824 8.603 16.906 17.578.163 1.584.25 3.071.358 4.59h65.572c5.993 0 10.851 4.858 10.851 10.851s-4.858 10.851-10.851 10.851h-65.68c-.119 1.519-.076 2.919-.239 4.503-1.067 9.011-7.98 16.221-16.938 17.665l-15.528 2.55c-1.827 6.389-4.123 12.634-6.869 18.685h83.552c17.978 0 32.553 14.574 32.553 32.553v12.392c21.163 5.464 34.961 25.812 32.207 47.494s-21.201 37.934-43.057 37.934c-21.857 0-40.303-16.252-43.058-37.934-2.754-21.682 11.044-42.03 32.207-47.494v-12.392c0-5.993-4.858-10.851-10.851-10.851h-82.618l2.355 3.255c5.276 7.261 5.139 17.129-.336 24.241-3.317 4.032-6.838 7.893-10.547 11.567-3.657 3.646-7.389 6.999-11.241 10.222-7.118 5.705-17.166 5.962-24.566.629l-12.847-9.202c-9.691 5.53-20.032 9.834-30.784 12.815l-2.539 15.538c-1.438 8.916-8.593 15.81-17.557 16.916-1.606.163-3.092.25-4.622.358v22.168c0 5.993-4.858 10.851-10.851 10.851s-10.851-4.858-10.851-10.851v-22.275c-1.519-.108-2.908-.076-4.481-.239-9.017-1.059-16.239-7.967-17.698-16.927l-2.539-15.538c-10.752-2.981-21.093-7.285-30.784-12.815l-12.869 9.202c-7.25 5.309-17.141 5.171-24.241-.336-4.199-3.505-7.932-6.858-11.589-10.493-3.917-3.928-7.281-7.596-10.319-11.361-5.647-7.19-5.811-17.261-.401-24.631l2.214-3.092h-82.622c-5.993 0-10.851 4.858-10.851 10.851v12.392c21.163 5.464 34.961 25.812 32.207 47.494s-21.201 37.934-43.058 37.934-40.303-16.252-43.058-37.934c-2.754-21.682 11.044-42.03 32.207-47.494v-12.392c0-17.978 14.574-32.553 32.553-32.553h83.552c-2.746-6.051-5.042-12.296-6.869-18.685l-15.549-2.55c-8.91-1.435-15.797-8.588-16.895-17.546-.163-1.606-.25-3.092-.369-4.622h-65.572c-5.993 0-10.851-4.858-10.851-10.851s4.858-10.851 10.851-10.851h65.68c.119-1.519.076-2.919.239-4.503 1.056-9.016 7.975-16.231 16.938-17.665l15.528-2.55c1.827-6.389 4.123-12.634 6.869-18.685h-83.552c-17.978 0-32.553-14.574-32.553-32.553v-12.392c-21.163-5.464-34.961-25.812-32.207-47.494s21.201-37.934 43.058-37.934 40.303 16.252 43.058 37.934c2.754 21.682-11.044 42.03-32.207 47.494v12.392c0 5.993 4.858 10.851 10.851 10.851h82.618l-2.355-3.255c-5.3-7.31-5.123-17.244.434-24.36 3.28-4.047 6.787-7.905 10.504-11.556 3.583-3.599 7.345-7.014 11.274-10.232 7.114-5.662 17.135-5.87 24.48-.51l12.847 9.202c9.691-5.53 20.032-9.834 30.784-12.815l2.539-15.538c1.438-8.916 8.593-15.81 17.557-16.916 1.606-.163 3.092-.25 4.622-.369v-22.162c0-5.993 4.858-10.851 10.851-10.851s10.851 4.858 10.851 10.851v22.157c1.487.109 2.93.195 4.481.358 9.017 1.059 16.239 7.967 17.698 16.927l2.539 15.538c10.752 2.981 21.093 7.285 30.784 12.815l12.869-9.202c7.249-5.312 17.142-5.175 24.241.336 4.032 3.306 7.892 6.815 11.567 10.514 3.647 3.594 7.092 7.386 10.319 11.361 5.612 7.118 5.829 17.092.532 24.447l-2.322 3.255h82.618c5.993 0 10.851-4.858 10.851-10.851v-12.392c-21.162-5.464-34.961-25.812-32.207-47.494s21.201-37.934 43.058-37.934 40.304 16.252 43.057 37.934c2.754 21.682-11.044 42.03-32.207 47.494v12.392c0 17.978-14.574 32.553-32.553 32.553h-83.552c2.748 6.054 5.043 12.299 6.87 18.688z" fill="#ffb306" data-original="#000000" style="" class=""/><circle id="Oval_17_" cx="304.849" cy="217.042" r="65.105" fill="#ffb306" data-original="#000000" style="" class=""/></g></g></g></g></svg>
