<?xml version="1.0"?>
<svg xmlns="http://www.w3.org/2000/svg" xmlns:xlink="http://www.w3.org/1999/xlink" xmlns:svgjs="http://svgjs.com/svgjs" version="1.1" width="512" height="512" x="0" y="0" viewBox="0 0 512 512" style="enable-background:new 0 0 512 512" xml:space="preserve" class=""><g><g xmlns="http://www.w3.org/2000/svg"><path d="m497 33h-75v90h90v-75c0-8.284-6.716-15-15-15z" fill="#ffb306" data-original="#000000" style="" class=""/><path d="m392 33h-377c-8.284 0-15 6.716-15 15v75h392z" fill="#ffb306" data-original="#000000" style="" class=""/><path d="m110 256h90v90h-90z" fill="#ffb306" data-original="#000000" style="" class=""/><path d="m0 464c0 8.284 6.716 15 15 15h482c8.284 0 15-6.716 15-15v-311h-512zm361-238h56c8.284 0 15 6.716 15 15s-6.716 15-15 15h-56c-8.284 0-15-6.716-15-15s6.716-15 15-15zm-30 60h86c8.284 0 15 6.716 15 15s-6.716 15-15 15h-86c-8.284 0-15-6.716-15-15s6.716-15 15-15zm0 60h86c8.284 0 15 6.716 15 15s-6.716 15-15 15h-86c-8.284 0-15-6.716-15-15s6.716-15 15-15zm-251-105c0-8.284 6.716-15 15-15h120c8.284 0 15 6.716 15 15v120c0 8.284-6.716 15-15 15h-120c-8.284 0-15-6.716-15-15z" fill="#ffb306" data-original="#000000" style="" class=""/></g></g></svg>
